<svg xmlns="http://www.w3.org/2000/svg" width="1600" height="900" viewBox="0 0 1600 900" fill="none">
  <rect width="1600" height="900" fill="#0A0B12"/>
  <rect x="52" y="52" width="1496" height="796" rx="34" fill="#10121D" stroke="#24293B"/>
  <rect x="92" y="92" width="720" height="336" rx="28" fill="#14172A"/>
  <rect x="840" y="92" width="668" height="336" rx="28" fill="#121726" stroke="#263247"/>
  <text x="132" y="144" fill="#A5B4FC" font-family="Segoe UI, Arial" font-size="22" letter-spacing="4">CONVERSION FUNNEL INTELLIGENCE HUB</text>
  <text x="132" y="226" fill="#FFFFFF" font-family="Georgia, serif" font-size="62">See where revenue disappears</text>
  <text x="132" y="292" fill="#FFFFFF" font-family="Georgia, serif" font-size="62">before it ever becomes pipeline.</text>
  <text x="880" y="140" fill="#94A3B8" font-family="Segoe UI, Arial" font-size="20">HEADLINE METRICS</text>
  <rect x="880" y="176" width="276" height="98" rx="22" fill="#171C2C"/>
  <rect x="1174" y="176" width="276" height="98" rx="22" fill="#171C2C"/>
  <rect x="880" y="292" width="276" height="98" rx="22" fill="#171C2C"/>
  <rect x="1174" y="292" width="276" height="98" rx="22" fill="#171C2C"/>
  <text x="910" y="216" fill="#94A3B8" font-family="Segoe UI, Arial" font-size="18">Qualified sessions</text>
  <text x="910" y="256" fill="#FFFFFF" font-family="Segoe UI, Arial" font-size="44" font-weight="700">184K</text>
  <text x="1204" y="216" fill="#94A3B8" font-family="Segoe UI, Arial" font-size="18">Pipeline-ready leads</text>
  <text x="1204" y="256" fill="#FFFFFF" font-family="Segoe UI, Arial" font-size="44" font-weight="700">12.8K</text>
  <text x="910" y="332" fill="#94A3B8" font-family="Segoe UI, Arial" font-size="18">Demo-to-opportunity</text>
  <text x="910" y="372" fill="#FFFFFF" font-family="Segoe UI, Arial" font-size="44" font-weight="700">37%</text>
  <text x="1204" y="332" fill="#94A3B8" font-family="Segoe UI, Arial" font-size="18">Revenue at risk</text>
  <text x="1204" y="372" fill="#FFFFFF" font-family="Segoe UI, Arial" font-size="44" font-weight="700">$2.4M</text>
  <rect x="92" y="456" width="1416" height="324" rx="28" fill="#121726" stroke="#263247"/>
  <text x="124" y="508" fill="#A5B4FC" font-family="Segoe UI, Arial" font-size="20">FUNNEL MAP</text>
  <rect x="134" y="554" width="1230" height="46" rx="23" fill="url(#gradA)"/>
  <rect x="220" y="618" width="1060" height="46" rx="23" fill="url(#gradB)"/>
  <rect x="320" y="682" width="860" height="46" rx="23" fill="url(#gradC)"/>
  <defs>
    <linearGradient id="gradA" x1="134" y1="577" x2="1364" y2="577" gradientUnits="userSpaceOnUse">
      <stop stop-color="#F472B6"/>
      <stop offset="1" stop-color="#2DD4BF"/>
    </linearGradient>
    <linearGradient id="gradB" x1="220" y1="641" x2="1280" y2="641" gradientUnits="userSpaceOnUse">
      <stop stop-color="#E879F9"/>
      <stop offset="1" stop-color="#5EEAD4"/>
    </linearGradient>
    <linearGradient id="gradC" x1="320" y1="705" x2="1180" y2="705" gradientUnits="userSpaceOnUse">
      <stop stop-color="#C084FC"/>
      <stop offset="1" stop-color="#34D399"/>
    </linearGradient>
  </defs>
</svg>
