<svg xmlns="http://www.w3.org/2000/svg" width="1600" height="900" viewBox="0 0 1600 900" fill="none">
  <rect width="1600" height="900" fill="#090B12"/>
  <rect x="70" y="70" width="1460" height="760" rx="30" fill="#121726" stroke="#273248"/>
  <text x="110" y="130" fill="#A5B4FC" font-family="Segoe UI, Arial" font-size="20">ACTION QUEUE</text>
  <text x="110" y="182" fill="#FFFFFF" font-family="Georgia, serif" font-size="44">What the growth system needs next</text>

  <g font-family="Segoe UI, Arial">
    <rect x="110" y="250" width="1380" height="110" rx="24" fill="#171C2C"/>
    <rect x="140" y="282" width="68" height="28" rx="14" fill="#4A2038"/>
    <text x="161" y="301" fill="#F9A8D4" font-size="15" font-weight="700">P1</text>
    <text x="234" y="296" fill="#FFFFFF" font-size="28" font-weight="700">Repair lifecycle nurture drop-off before next campaign wave</text>
    <text x="234" y="332" fill="#94A3B8" font-size="22">CRM Ops</text>

    <rect x="110" y="390" width="1380" height="110" rx="24" fill="#171C2C"/>
    <rect x="140" y="422" width="68" height="28" rx="14" fill="#4A2038"/>
    <text x="161" y="441" fill="#F9A8D4" font-size="15" font-weight="700">P1</text>
    <text x="234" y="436" fill="#FFFFFF" font-size="28" font-weight="700">Expand enterprise demo inventory for high-intent traffic spikes</text>
    <text x="234" y="472" fill="#94A3B8" font-size="22">Revenue Ops</text>

    <rect x="110" y="530" width="1380" height="110" rx="24" fill="#171C2C"/>
    <rect x="140" y="562" width="68" height="28" rx="14" fill="#2B2148"/>
    <text x="161" y="581" fill="#C4B5FD" font-size="15" font-weight="700">P2</text>
    <text x="234" y="576" fill="#FFFFFF" font-size="28" font-weight="700">Accelerate partner lead routing and tighten SAL handoff</text>
    <text x="234" y="612" fill="#94A3B8" font-size="22">Channel Ops</text>

    <rect x="110" y="670" width="1380" height="110" rx="24" fill="#171C2C"/>
    <rect x="140" y="702" width="68" height="28" rx="14" fill="#2B2148"/>
    <text x="161" y="721" fill="#C4B5FD" font-size="15" font-weight="700">P3</text>
    <text x="234" y="716" fill="#FFFFFF" font-size="28" font-weight="700">Bundle experiment insights into weekly GTM executive readout</text>
    <text x="234" y="752" fill="#94A3B8" font-size="22">Growth Analytics</text>
  </g>
</svg>
